HIERARCHY
ROOT Hips
{
   OFFSET 0.00000 0.00000 0.00000
   CHANNELS 6 Xposition Yposition Zposition Zrotation Xrotation Yrotation
   JOINT RightUpLeg
   {
      OFFSET -8.945800 -8.667070 0.101652
      CHANNELS 3 Zrotation Xrotation Yrotation
      JOINT RightLeg
      {
         OFFSET 0.000000 -44.422697 1.372700
         CHANNELS 3 Zrotation Xrotation Yrotation
         JOINT RightFoot
         {
            OFFSET 0.253549 -42.092399 -1.460590
            CHANNELS 3 Zrotation Xrotation Yrotation
            JOINT RightToes
            {
               OFFSET 0.040000 -4.415090 8.499099
               CHANNELS 3 Zrotation Xrotation Yrotation
               End Site
               {
                  OFFSET -0.080000 -0.137448 9.779790
               }
            }
         }
      }
   }
   JOINT Spine
   {
      OFFSET 0.000000 11.890501 0.000000
      CHANNELS 3 Zrotation Xrotation Yrotation
      JOINT Spine1
      {
         OFFSET 0.000000 25.657401 0.127663
         CHANNELS 3 Zrotation Xrotation Yrotation
         JOINT HEad
         {
            OFFSET 0.000000 8.734161 0.011341
            CHANNELS 3 Zrotation Xrotation Yrotation
            End Site
            {
               OFFSET -0.290000 12.774200 2.513950
            }
         }
         JOINT LeftShoulder1
         {
            OFFSET 8.990000 -0.362252 -0.220000
            CHANNELS 3 Zrotation Xrotation Yrotation
            JOINT LeftArm
            {
               OFFSET 10.282700 -0.003380 0.322123
               CHANNELS 3 Zrotation Xrotation Yrotation
               JOINT LeftForeArm
               {
                  OFFSET 32.766900 0.099144 -1.424340
                  CHANNELS 3 Zrotation Xrotation Yrotation
                  JOINT LeftHand
                  {
                     OFFSET 27.564301 0.085362 1.022160
                     CHANNELS 3 Zrotation Xrotation Yrotation
                     End Site
                     {
                        OFFSET 16.744301 -0.600000 1.502910
                     }
                  }
               }
            }
         }
         JOINT RightShoulder
         {
            OFFSET -8.990000 -0.362252 -0.220000
            CHANNELS 3 Zrotation Xrotation Yrotation
            JOINT RightArm
            {
               OFFSET -10.282700 -0.003380 0.322123
               CHANNELS 3 Zrotation Xrotation Yrotation
               JOINT RightForeArm
               {
                  OFFSET -32.897098 0.099144 -1.424340
                  CHANNELS 3 Zrotation Xrotation Yrotation
                  JOINT RightHand
                  {
                     OFFSET -27.492101 0.085362 1.022160
                     CHANNELS 3 Zrotation Xrotation Yrotation
                     End Site
                     {
                        OFFSET -16.631201 -0.600000 1.502910
                     }
                  }
               }
            }
         }
      }
   }
   JOINT LeftUpLeg
   {
      OFFSET 8.945800 -8.667070 0.101652
      CHANNELS 3 Zrotation Xrotation Yrotation
      JOINT LeftLeg
      {
         OFFSET 0.000000 -44.422697 1.372700
         CHANNELS 3 Zrotation Xrotation Yrotation
         JOINT LeftFoot
         {
            OFFSET -0.253549 -42.092399 -1.460590
            CHANNELS 3 Zrotation Xrotation Yrotation
            JOINT LeftToes
            {
               OFFSET -0.040000 -4.415090 8.499099
               CHANNELS 3 Zrotation Xrotation Yrotation
               End Site
               {
                  OFFSET 0.080000 -0.047448 9.779790
               }
            }
         }
      }
   }
}
MOTION
Frames: 13
Frame Time: 0.016667
-839.614169 98.690709 464.556077 -34.245363 31.944231 -77.821830 -7.804483 28.345621 10.284345 51.729790 23.692255 -31.701814 -11.067096 19.709237 29.466956 12.473699 -45.864942 -42.593483 33.469542 27.762631 112.969191 9.853469 -5.156816 -138.131342 24.383420 5.138606 -31.795275 -54.294478 -23.743993 -53.202317 26.984261 38.473202 -55.377627 23.468781 -7.046376 -49.045000 -43.707507 -73.160554 -79.959597 59.340991 247.035921 24.858532 104.318367 79.056899 336.302778 -25.209817 7.729382 50.820948 -14.440586 -2.499413 15.142596 18.664969 -3.545976 -102.250281 -18.786536 -12.167666 86.940904 14.520545 46.055590 18.139884 -30.000506 -15.941662 -4.733995
-839.066455 98.743370 464.280503 -31.366148 30.695382 -76.955653 -8.691074 26.467637 10.713836 51.831184 21.081119 -27.430511 -9.740939 19.166385 28.748737 13.722648 -44.008435 -42.479924 32.953460 29.598973 117.411648 8.472795 -3.398961 -136.566982 23.840506 3.276402 -32.352451 -54.296821 -26.518100 -53.375101 21.821384 36.071653 -60.173775 20.991154 -0.751205 -49.783418 -39.998247 -71.728843 -82.695006 65.646929 240.533007 29.677326 101.775836 70.573995 339.057448 -26.537247 10.201425 49.636136 -13.769216 -2.699462 14.609995 18.046000 -6.262117 -100.099475 -17.327609 -12.692053 85.600193 12.305576 45.540146 18.802225 -29.871730 -16.288090 -4.823733
-840.488574 98.412026 463.143075 -29.723826 29.758103 -78.686750 -8.877386 24.202074 10.927077 50.858480 20.360201 -28.882582 -10.063401 17.181740 30.168157 15.575966 -41.438614 -42.450589 31.330344 30.066206 120.380431 8.514992 -3.452705 -134.371705 23.924408 1.239073 -33.146334 -55.029465 -29.100410 -53.660169 17.149615 35.516796 -62.215066 18.655598 2.841209 -52.608190 -41.135589 -77.453758 -82.911905 65.777645 234.616233 28.568660 104.395453 70.719260 336.715349 -25.659356 12.883073 50.542187 -14.057319 -3.145084 14.133438 17.748868 -7.208764 -97.882997 -19.681340 -13.218611 86.653101 9.371224 41.492959 20.960426 -29.620338 -16.970599 -5.238567
-842.022845 98.065270 462.092622 -28.403470 28.107492 -80.502672 -9.816744 21.570998 8.375099 47.369080 19.732657 -30.678181 -9.028912 16.126585 30.745000 19.145910 -36.730941 -42.602181 27.150454 29.528315 122.744278 9.740773 -4.662350 -131.329252 25.150602 -0.101202 -34.331160 -55.426982 -31.600826 -54.011039 12.876581 36.329049 -63.035427 16.861603 4.493721 -54.767360 -39.302903 -74.864939 -84.820192 66.897188 228.991285 27.210610 108.101677 68.899205 332.318018 -24.290349 16.140545 51.546215 -13.672405 -3.233418 15.043036 18.343784 -6.858629 -95.013969 -20.050206 -15.907009 87.268180 5.548809 38.324581 21.550032 -29.175433 -17.042492 -5.828925
-843.636996 97.807873 461.124566 -27.789706 25.995063 -81.593720 -10.350538 19.710142 5.388326 43.254147 20.970322 -25.508299 -7.667863 16.306400 27.920003 21.396601 -33.245198 -41.067714 23.746804 28.976063 124.739472 11.156516 -4.574484 -128.587436 26.719550 -0.409267 -35.592696 -55.816463 -33.864276 -54.737396 10.715868 37.526084 -63.399667 15.535349 5.556348 -56.556169 -40.171560 -77.054827 -84.285935 66.826584 222.291594 24.883190 112.539067 65.905738 326.994787 -22.479944 20.713384 52.254861 -13.224973 -3.093483 15.748943 18.009423 -5.852597 -91.778823 -20.782824 -17.589325 87.955242 2.277342 34.435799 22.465467 -28.492119 -18.178518 -6.789448
-845.385730 97.583445 460.118172 -27.810807 24.444894 -81.670669 -10.314562 18.080810 2.688962 41.319988 24.183787 -22.976490 -6.722475 15.530211 28.268905 21.871442 -31.847912 -37.798602 21.923379 28.178977 124.934719 12.994144 -4.875706 -126.250064 28.882486 0.561466 -36.842430 -57.200696 -34.719009 -56.813124 9.214678 39.882868 -62.806779 15.215300 0.583144 -55.781964 -41.861560 -70.879441 -83.224680 66.487356 214.745136 21.202552 116.911624 61.336485 320.553127 -20.562324 25.443894 53.078544 -11.955707 -2.628405 17.532288 17.356231 -4.537941 -88.403944 -22.209596 -17.676893 89.175694 -0.430780 29.449600 23.941563 -27.645092 -20.242539 -7.969707
-847.283313 97.504052 459.116280 -31.623475 25.353645 -79.006465 -7.718634 18.775920 0.776592 39.553363 28.684301 -20.800054 -4.057905 14.813323 30.678310 20.977463 -32.046069 -33.013685 20.775793 26.787669 122.046355 15.812040 -6.578448 -123.625823 31.789394 2.801010 -38.053364 -58.538457 -35.300053 -60.896512 8.612051 44.120573 -62.822659 16.592404 -1.874344 -53.551979 -43.837097 -69.756647 -81.029744 66.882182 206.484747 17.185837 120.901780 54.882957 312.012849 -19.810525 30.614390 52.192836 -10.378810 -1.988436 19.480854 18.396223 -1.197186 -87.699260 -24.501668 -15.021819 90.263429 -2.779101 24.125973 24.922467 -26.376247 -22.237759 -10.029210
-849.373385 97.654904 458.088868 -37.182966 27.312190 -75.483754 -3.867260 19.102154 -2.030866 37.324463 33.143479 -18.994172 -1.771859 16.333013 32.646904 20.697980 -32.533055 -29.297314 22.295889 26.515722 117.565027 19.991865 -7.982209 -120.514972 34.503158 5.817978 -39.128153 -61.278552 -36.347565 -63.848663 8.690611 48.244785 -63.216392 18.415577 -2.904414 -51.987572 -43.521443 -67.364960 -79.709510 68.936109 196.076891 13.235128 124.916578 48.020922 303.309768 -18.748126 35.853087 52.074028 -8.124160 -1.316434 23.724408 19.196525 4.034333 -91.152870 -26.167978 -8.262453 90.584837 -6.053528 19.642179 24.319988 -24.916457 -22.962913 -12.386307
-851.552874 98.117913 457.058785 -44.000430 27.800152 -68.595863 -1.294662 20.750897 -6.621772 36.362421 35.917684 -18.775287 -2.697857 18.192822 34.300261 20.576211 -33.411854 -26.043856 25.457787 25.763697 112.183945 22.591964 -8.978266 -118.581141 35.804210 8.172640 -40.062864 -64.619088 -37.066272 -66.848298 8.643830 52.811470 -63.600037 20.274682 -3.290049 -51.583320 -44.105632 -67.331547 -78.407457 70.767768 182.800833 8.738271 128.119363 41.879185 294.102454 -16.939105 40.610334 53.703424 -5.761455 -0.912053 31.515391 22.460114 8.375238 -93.515836 -28.182139 -5.660252 91.069719 -10.325714 15.428335 23.237113 -23.695410 -23.189621 -14.140658
-853.741900 98.619193 456.115792 -50.394334 29.843562 -62.137468 1.664823 20.258549 -9.602475 34.891253 36.707697 -17.919435 -2.822127 21.053297 37.921272 19.941557 -33.230434 -20.735097 30.353992 24.022643 106.677631 25.698681 -9.643348 -116.880533 36.224240 10.373818 -40.905494 -67.800221 -37.960320 -69.104835 8.998239 57.061251 -63.477825 23.067806 -3.435828 -49.559422 -42.996560 -66.930902 -76.089673 73.644425 168.451275 3.917900 131.938832 35.383532 282.378189 -15.834359 45.503048 54.791327 -2.773944 -0.025296 37.675303 27.393000 11.687078 -97.639760 -29.787138 -1.213710 90.755777 -15.544906 13.820619 20.607635 -22.224177 -22.169197 -16.228738
-855.722872 98.994025 455.360558 -56.444550 30.664343 -55.443767 2.008024 17.150747 -10.347871 33.656539 36.343539 -17.619468 -3.795464 28.777199 42.406602 20.458102 -32.230519 -17.277358 33.171367 20.364431 102.407820 28.653771 -11.089614 -113.768863 36.214517 12.638947 -41.732145 -70.770855 -39.071612 -70.393835 7.636420 62.062118 -63.243488 25.468288 -3.922748 -48.761434 -42.422401 -68.014887 -74.686425 77.604083 153.288638 -1.276215 135.007514 29.161653 269.468776 -15.069431 49.067362 55.811306 -0.630202 0.411235 42.301544 34.633871 13.901406 -100.621910 -31.667629 0.174545 90.047418 -21.037579 12.922238 17.254323 -20.569571 -21.368909 -18.868193
-857.764346 99.054411 454.561570 -61.342216 32.522362 -50.915406 0.288655 12.974543 -11.258241 35.575105 36.562122 -20.640838 -3.378431 36.566159 45.777567 21.296830 -32.039307 -15.256225 37.798871 17.446801 97.919470 31.597698 -11.708905 -110.972802 35.973623 14.867660 -42.609285 -72.959104 -40.136480 -70.804651 6.205382 67.051981 -62.327730 26.917031 -4.537126 -48.472203 -39.987653 -69.599839 -75.921220 81.850842 137.559163 -7.487393 138.732958 21.819316 255.515355 -14.910277 52.535370 54.682652 0.010845 -0.130409 44.732319 41.967141 14.628834 -101.155286 -33.368186 0.087268 91.050581 -26.117952 10.727582 15.805008 -19.306484 -22.228301 -21.031496
-859.890200 98.840865 453.777268 -66.214634 35.279437 -47.469470 -1.575583 6.342997 -12.698900 37.696678 37.292488 -26.153954 -10.947021 43.399589 47.206408 22.912696 -30.837833 -14.815319 40.598248 15.214016 94.531061 34.149604 -11.225340 -108.165519 35.662795 17.700883 -43.469325 -75.591561 -41.308950 -70.006891 4.361260 71.823913 -61.410723 27.762323 -5.096347 -50.296256 -38.709189 -71.141959 -78.666260 86.500377 122.521723 -13.358709 141.659612 14.298177 242.029392 -13.227138 55.236293 57.054042 1.350262 0.686316 49.166888 50.311249 15.295500 -99.660520 -33.889093 -1.868042 93.088997 -30.553321 9.735047 15.839607 -18.078532 -22.216181 -22.734874
